<svg id="Layer_1" data-name="Layer 1" xmlns="http://www.w3.org/2000/svg" xmlns:xlink="http://www.w3.org/1999/xlink" viewBox="0 0 376.11 406.06"><defs><style>.cls-1{fill:url(#linear-gradient);}.cls-2{fill:url(#linear-gradient-2);}.cls-3{fill:url(#linear-gradient-3);}.cls-4{fill:url(#linear-gradient-4);}.cls-5{fill:url(#linear-gradient-5);}.cls-6{fill:url(#linear-gradient-6);}.cls-7{fill:url(#linear-gradient-7);}.cls-8{fill:url(#linear-gradient-8);}.cls-9{fill:url(#linear-gradient-9);}.cls-10{fill:url(#linear-gradient-10);}.cls-11{fill:url(#linear-gradient-11);}.cls-12{fill:url(#linear-gradient-12);}.cls-13{fill:url(#linear-gradient-13);}.cls-14{fill:url(#linear-gradient-14);}.cls-15{fill:url(#linear-gradient-15);}</style><linearGradient id="linear-gradient" x1="635.72" y1="426.42" x2="668.19" y2="415.02" gradientTransform="matrix(1, 0, 0, -1, -453.22, 634.02)" gradientUnits="userSpaceOnUse"><stop offset="0" stop-color="#e5e2df"/><stop offset="0" stop-color="#dedad6"/><stop offset="0.06" stop-color="#cfcac9"/><stop offset="0.18" stop-color="#a8a4a7"/><stop offset="0.26" stop-color="#8c888e"/><stop offset="0.52" stop-color="#f3f4f4"/><stop offset="0.58" stop-color="#e5e5e6"/><stop offset="0.7" stop-color="#c1bec0"/><stop offset="0.86" stop-color="#868185"/><stop offset="0.88" stop-color="#817c80"/><stop offset="1" stop-color="#d2d3d4"/><stop offset="1" stop-color="#a8aaad"/></linearGradient><linearGradient id="linear-gradient-2" x1="625.13" y1="456.92" x2="865.21" y2="372.58" gradientTransform="matrix(1, 0, 0, -1, 0, 842.11)" gradientUnits="userSpaceOnUse"><stop offset="0.03" stop-color="#9a9a98"/><stop offset="0.13" stop-color="#a4a4a6"/><stop offset="0.22" stop-color="#afb1b7"/><stop offset="0.35" stop-color="#9fa3aa"/><stop offset="0.61" stop-color="#788188"/><stop offset="0.72" stop-color="#657177"/><stop offset="1" stop-color="#8b949b"/></linearGradient><linearGradient id="linear-gradient-3" x1="649.72" y1="428.18" x2="694.55" y2="412.43" gradientTransform="matrix(1, 0, 0, -1, 0, 842.11)" gradientUnits="userSpaceOnUse"><stop offset="0.01" stop-color="#dfe3e6"/><stop offset="0.25" stop-color="#fffce7"/><stop offset="0.4" stop-color="#efecd8"/><stop offset="0.6" stop-color="#d6cdc2"/><stop offset="0.79" stop-color="#eeeded"/><stop offset="1" stop-color="#d8d5bc"/></linearGradient><linearGradient id="linear-gradient-4" x1="837.29" y1="392.48" x2="869.75" y2="381.07" gradientTransform="matrix(-0.47, -0.88, -0.88, 0.47, 863.39, 735.8)" xlink:href="#linear-gradient"/><linearGradient id="linear-gradient-5" x1="826.71" y1="422.99" x2="1066.78" y2="338.65" gradientTransform="matrix(-0.47, -0.88, -0.88, 0.47, 1316.61, 943.9)" xlink:href="#linear-gradient-2"/><linearGradient id="linear-gradient-6" x1="851.28" y1="394.23" x2="896.11" y2="378.48" gradientTransform="matrix(-0.47, -0.88, -0.88, 0.47, 1316.61, 943.9)" xlink:href="#linear-gradient-3"/><linearGradient id="linear-gradient-7" x1="712.64" y1="229.09" x2="745.11" y2="217.69" gradientTransform="matrix(-0.56, 0.83, 0.83, 0.56, 338.97, -475)" xlink:href="#linear-gradient"/><linearGradient id="linear-gradient-8" x1="702.09" y1="259.68" x2="942.17" y2="175.34" gradientTransform="matrix(-0.56, 0.83, 0.83, 0.56, 792.19, -266.91)" xlink:href="#linear-gradient-2"/><linearGradient id="linear-gradient-9" x1="726.64" y1="230.86" x2="771.47" y2="215.11" gradientTransform="matrix(-0.56, 0.83, 0.83, 0.56, 792.19, -266.91)" xlink:href="#linear-gradient-3"/><linearGradient id="linear-gradient-10" x1="546.84" y1="441.63" x2="663.38" y2="400.69" gradientTransform="matrix(1, 0, 0, -1, -453.22, 634.02)" gradientUnits="userSpaceOnUse"><stop offset="0" stop-color="#e5e2df"/><stop offset="0" stop-color="#dedad6"/><stop offset="0.04" stop-color="#cfccc9"/><stop offset="0.11" stop-color="#a9a8a8"/><stop offset="0.21" stop-color="#6b7172"/><stop offset="0.26" stop-color="#475154"/><stop offset="0.37" stop-color="#878d8f"/><stop offset="0.46" stop-color="#b8babb"/><stop offset="0.53" stop-color="#d6d7d7"/><stop offset="0.57" stop-color="#e0e1e0"/><stop offset="0.63" stop-color="#d6d7d8"/><stop offset="0.73" stop-color="#bdbfc2"/><stop offset="0.86" stop-color="#93989e"/><stop offset="0.88" stop-color="#8b9299"/><stop offset="1" stop-color="#d2d3d4"/><stop offset="1" stop-color="#a8aaad"/></linearGradient><linearGradient id="linear-gradient-11" x1="549.19" y1="440.81" x2="660.66" y2="401.65" gradientTransform="matrix(1, 0, 0, -1, -453.22, 634.02)" gradientUnits="userSpaceOnUse"><stop offset="0" stop-color="#e5e2df"/><stop offset="0" stop-color="#d8d4d0"/><stop offset="0" stop-color="#ccc7c2"/><stop offset="0.07" stop-color="#bdb9b4"/><stop offset="0.15" stop-color="#a6a3a0"/><stop offset="0.52" stop-color="#e0e1e2"/><stop offset="0.62" stop-color="#d3d3d3"/><stop offset="0.82" stop-color="#b3b0ad"/><stop offset="0.88" stop-color="#a6a3a0"/><stop offset="1" stop-color="#d2d3d4"/><stop offset="1" stop-color="#a8aaad"/></linearGradient><linearGradient id="linear-gradient-12" x1="569.08" y1="433.82" x2="637.53" y2="409.77" xlink:href="#linear-gradient-10"/><linearGradient id="linear-gradient-13" x1="570.46" y1="433.34" x2="635.93" y2="410.34" gradientTransform="matrix(1, 0, 0, -1, -453.22, 634.02)" gradientUnits="userSpaceOnUse"><stop offset="0.01" stop-color="#c5c6c8"/><stop offset="0.36" stop-color="#939598"/><stop offset="0.59" stop-color="#a1a3a6"/><stop offset="0.65" stop-color="#a8aaad"/><stop offset="0.87" stop-color="#aaacaf"/><stop offset="1" stop-color="#a8aaad"/><stop offset="1" stop-color="#d2d3d4"/></linearGradient><linearGradient id="linear-gradient-14" x1="577.24" y1="430.95" x2="628.04" y2="413.11" xlink:href="#linear-gradient-10"/><linearGradient id="linear-gradient-15" x1="578.26" y1="430.59" x2="626.85" y2="413.52" xlink:href="#linear-gradient-13"/></defs><title>fan</title><rect class="cls-1" x="186.5" y="207.71" width="22" height="10.3"/><path class="cls-2" d="M651.53,395.81s10.6,22.9,0,51.2l171.3-6.6s2.7.4,3.4-4.1,2.8-9.1,3.1-14.6-2.8-10.9-2.8-13.9-1.8-5.7-4.2-5.7S651.53,395.81,651.53,395.81Z" transform="translate(-453.22 -208.09)"/><path class="cls-3" d="M683.63,412.61l4.6,8.3-4.6,8.4h-27.8s.5-6.6.5-8.8c0-2-.5-7.9-.5-7.9Z" transform="translate(-453.22 -208.09)"/><polygon class="cls-4" points="122.41 150.81 132.6 170.21 123.5 175.01 113.3 155.61 122.41 150.81"/><path class="cls-5" d="M553.53,382s15.3-20.1,45.3-23.9l-85.9-148.4s-.9-2.6-5.2-1.2-9.4,1.7-14.4,4.1-8.3,7.6-10.9,9-4.2,4.3-3.1,6.4S553.53,382,553.53,382Z" transform="translate(-453.22 -208.09)"/><path class="cls-6" d="M553.43,345.91l5.2-8,9.6.2,13,24.6s-6,2.6-8,3.7c-1.8.9-6.8,4.1-6.8,4.1Z" transform="translate(-453.22 -208.09)"/><polygon class="cls-7" points="103.2 258.41 115.5 240.21 124 246.01 111.6 264.11 103.2 258.41"/><path class="cls-8" d="M587.13,475.21s-24.9-4.1-42.3-28.9l-91.1,145.2s-1.8,2,1.4,5.1,5.9,7.5,10.4,10.8,10.6,3.8,13.1,5.5,5.7,1.7,7.1-.2C486.93,610.81,587.13,475.21,587.13,475.21Z" transform="translate(-453.22 -208.09)"/><path class="cls-9" d="M555.13,492.11l-9.5-.9-4.3-8.5,15.7-22.9s5.2,4.1,7,5.3,6.8,4.1,6.8,4.1Z" transform="translate(-453.22 -208.09)"/><circle class="cls-10" cx="147.5" cy="211.31" r="43.3"/><circle class="cls-11" cx="147.5" cy="211.31" r="41.4"/><circle class="cls-12" cx="147.5" cy="211.31" r="25.4"/><circle class="cls-13" cx="147.5" cy="211.31" r="24.3"/><circle class="cls-14" cx="147.5" cy="211.31" r="18.9"/><circle class="cls-15" cx="147.5" cy="211.31" r="18.1"/></svg>