<svg id="Layer_1" data-name="Layer 1" xmlns="http://www.w3.org/2000/svg" xmlns:xlink="http://www.w3.org/1999/xlink" viewBox="0 0 697.2 241.51"><defs><style>.cls-1{fill:#a97c50;}.cls-1,.cls-2{stroke:#231f20;stroke-miterlimit:10;}.cls-2{fill:url(#radial-gradient);}.cls-3{fill:#55504b;}.cls-4{fill:#766758;}.cls-5{fill:#414042;}.cls-6{fill:url(#linear-gradient);}</style><radialGradient id="radial-gradient" cx="597.38" cy="399.05" r="241.41" gradientTransform="translate(198.33 996.43) rotate(-90)" gradientUnits="userSpaceOnUse"><stop offset="0" stop-color="#c49a6c"/><stop offset="0.58" stop-color="#a97c50"/><stop offset="1" stop-color="#754c29"/></radialGradient><linearGradient id="linear-gradient" x1="603.71" y1="511.72" x2="603.71" y2="298.27" gradientTransform="translate(-12.66 98.91)" gradientUnits="userSpaceOnUse"><stop offset="0" stop-color="#fff"/><stop offset="1" stop-color="#f9ed32" stop-opacity="0"/></linearGradient></defs><title>tv</title><rect class="cls-1" x="249.28" y="278.8" width="696.2" height="240.51" transform="translate(945.98 519.8) rotate(180)"/><rect class="cls-2" x="498.47" y="72.29" width="197.83" height="653.53" transform="translate(-50.45 718.13) rotate(-90)"/><path class="cls-3" d="M599.48,351.08c22.65,0,44.1,3.24,60.38,9.12,25,9,30.21,21.29,30.21,30s-5.24,21-30.21,30c-16.28,5.88-37.73,9.12-60.38,9.12s-44.1-3.24-60.38-9.12c-25-9-30.21-21.29-30.21-30s5.24-21,30.21-30C555.39,354.32,576.83,351.08,599.48,351.08Z" transform="translate(-248.78 -278.3)"/><ellipse class="cls-4" cx="350.71" cy="111.89" rx="80.59" ry="29.11"/><rect class="cls-5" x="311.3" y="377.16" width="559.49" height="21.89" transform="translate(933.32 497.91) rotate(180)"/><rect class="cls-6" x="311.3" y="399.05" width="559.49" height="98.91" transform="translate(933.32 618.72) rotate(180)"/></svg>